<?xml version="1.0" encoding="iso-8859-1"?>
<!-- Generator: Adobe Illustrator 19.0.0, SVG Export Plug-In . SVG Version: 6.00 Build 0)  -->
<svg version="1.1" id="Layer_1" xmlns="http://www.w3.org/2000/svg" xmlns:xlink="http://www.w3.org/1999/xlink" x="0px" y="0px"
	 viewBox="0 0 512 512" style="enable-background:new 0 0 512 512;" xml:space="preserve">
<g transform="translate(1 1)">
	<g>
		<g>
			<path d="M182.467,178.2c0,23.893,18.773,42.667,42.667,42.667c23.893,0,42.667-18.773,42.667-42.667
				s-18.773-42.667-42.667-42.667C201.24,135.533,182.467,154.307,182.467,178.2z M225.133,152.6c14.507,0,25.6,11.093,25.6,25.6
				s-11.093,25.6-25.6,25.6c-14.507,0-25.6-11.093-25.6-25.6S210.627,152.6,225.133,152.6z"/>
			<path d="M369.276,278.06c0.523-5.199,0.924-9.87,0.924-14.527V178.2c0-5.12-3.413-8.533-8.533-8.533H319v-76.8
				C319,40.813,277.187-1,225.133-1s-93.867,41.813-93.867,93.867v76.8H88.6c-5.12,0-8.533,3.413-8.533,8.533v85.333
				c0,77.348,60.305,140.404,136.533,144.811V459.8h-42.667c-23.893,0-42.667,18.773-42.667,42.667c0,5.12,3.413,8.533,8.533,8.533
				h170.667c5.12,0,8.533-3.413,8.533-8.533c0-23.893-18.773-42.667-42.667-42.667h-42.667v-51.527
				c5.885-0.437,11.701-1.305,17.332-2.459c14.925,31.967,47.298,53.985,85.068,53.985c52.053,0,93.867-41.813,93.867-93.867
				C429.933,325.589,404.812,291.402,369.276,278.06z M277.187,476.867c11.093,0,20.48,6.827,23.893,17.067H150.04
				c3.413-10.24,12.8-17.067,23.893-17.067H277.187z M412.867,365.933c0,18.265-6.269,34.953-16.771,48.082L288.033,305.953
				c4.689-3.768,9.844-7.009,15.386-9.63c1.601-0.746,3.235-1.433,4.895-2.07c0.718,0,1.435,0,2.153,0
				c15.36-5.973,31.573-5.973,46.933-1.707c1.177,0.392,2.172,0.591,3.154,0.54C391.071,303.227,412.867,331.847,412.867,365.933z
				 M353.133,186.733v76.8c0,3.306-0.794,6.613-0.844,9.919c-2.352-0.405-4.734-0.723-7.144-0.952
				c-8.84-1.148-17.974-0.753-26.608,1.189c-0.028,0.005-0.057,0.011-0.085,0.016c0.134-1.231,0.246-2.458,0.327-3.677
				c0.218-2.165,0.22-4.33,0.22-6.495v-76.8H353.133z M216.6,16.541v42.193c0,5.12,3.413,8.533,8.533,8.533
				c5.12,0,8.533-3.413,8.533-8.533V16.541c38.593,4.198,68.267,36.547,68.267,76.326h-42.667c-5.12,0-8.533,3.413-8.533,8.533
				s3.413,8.533,8.533,8.533h42.667v34.133h-17.067c-5.12,0-8.533,3.413-8.533,8.533c0,5.12,3.413,8.533,8.533,8.533h17.067V178.2
				v17.067h-17.067c-5.12,0-8.533,3.413-8.533,8.533c0,5.12,3.413,8.533,8.533,8.533h17.067v34.133h-42.667
				c-5.12,0-8.533,3.413-8.533,8.533s3.413,8.533,8.533,8.533h42.667c0,5.12-0.853,10.24-1.707,15.36
				c-4.452,1.929-8.718,4.148-12.781,6.627c-0.109,0.066-0.217,0.132-0.326,0.198c-0.364,0.224-0.726,0.449-1.087,0.677
				c-0.546,0.343-1.088,0.692-1.627,1.046c-0.036,0.024-0.072,0.047-0.108,0.071c-2.429,1.601-4.777,3.312-7.039,5.126
				c-2.308,1.838-4.528,3.771-6.647,5.802c-0.382,0.278-0.754,0.583-1.104,0.933c-0.315,0.315-0.591,0.648-0.848,0.99
				c-10.011,10.164-17.664,22.519-22.192,36.557c-1.49,0.559-2.981,1.023-4.48,1.428c-2.773,0.61-5.546,1.095-8.32,1.434v-42.114
				c0-5.12-3.413-8.533-8.533-8.533c-5.12,0-8.533,3.413-8.533,8.533v42.193c-38.593-4.198-68.267-36.547-68.267-76.326H191
				c5.12,0,8.533-3.413,8.533-8.533s-3.413-8.533-8.533-8.533h-42.667v-34.133H165.4c5.12,0,8.533-3.413,8.533-8.533
				c0-5.12-3.413-8.533-8.533-8.533h-17.067V178.2v-17.067H165.4c5.12,0,8.533-3.413,8.533-8.533c0-5.12-3.413-8.533-8.533-8.533
				h-17.067v-34.133H191c5.12,0,8.533-3.413,8.533-8.533s-3.413-8.533-8.533-8.533h-42.667
				C148.333,53.088,178.007,20.739,216.6,16.541z M225.133,391.533c-70.827,0-128-57.173-128-128v-76.8h34.133v76.8
				c0,52.053,41.813,93.867,93.867,93.867c5.227,0,10.675-0.448,16.119-1.451c0.498-0.07,0.996-0.141,1.494-0.212
				c-0.128,1.195-0.232,2.396-0.315,3.604c-0.228,2.197-0.231,4.395-0.231,6.592c0,0.875,0.014,1.746,0.037,2.614
				c0.012,0.456,0.034,0.918,0.052,1.378c0.016,0.387,0.031,0.774,0.051,1.159c0.03,0.576,0.068,1.153,0.109,1.734
				c0.019,0.272,0.041,0.543,0.063,0.815c0.047,0.589,0.096,1.178,0.156,1.769c0.49,4.949,1.363,9.781,2.584,14.469
				C238.546,390.71,231.84,391.533,225.133,391.533z M264.745,394.601c-0.093-0.451-0.206-0.905-0.358-1.361
				c-2.122-5.306-3.583-10.942-4.386-16.703c-0.017-0.127-0.031-0.254-0.048-0.381c-0.133-0.99-0.248-1.983-0.342-2.979
				c-0.046-0.495-0.076-0.995-0.112-1.492c-0.051-0.684-0.108-1.367-0.14-2.053c-0.057-1.226-0.092-2.458-0.092-3.699
				c0-1.172,0.036-2.335,0.087-3.493c0.014-0.305,0.027-0.61,0.044-0.913c0.049-0.889,0.12-1.772,0.199-2.653
				c0.392-4.138,1.131-8.177,2.229-12.567c0.058-0.231,0.088-0.448,0.13-0.671c1.453-5.385,3.471-10.525,5.989-15.361
				c2.322-4.379,5.055-8.517,8.148-12.368l108.055,108.055c-13.129,10.502-29.818,16.771-48.082,16.771
				C303.558,442.733,276.023,422.908,264.745,394.601z"/>
		</g>
	</g>
</g>
<g>
</g>
<g>
</g>
<g>
</g>
<g>
</g>
<g>
</g>
<g>
</g>
<g>
</g>
<g>
</g>
<g>
</g>
<g>
</g>
<g>
</g>
<g>
</g>
<g>
</g>
<g>
</g>
<g>
</g>
</svg>
