<?xml version="1.0" encoding="iso-8859-1"?>
<!-- Generator: Adobe Illustrator 19.0.0, SVG Export Plug-In . SVG Version: 6.00 Build 0)  -->
<svg version="1.1" id="Layer_1" xmlns="http://www.w3.org/2000/svg" xmlns:xlink="http://www.w3.org/1999/xlink" x="0px" y="0px"
	 viewBox="0 0 512.114 512.114" style="enable-background:new 0 0 512.114 512.114;" xml:space="preserve">
<g transform="translate(1 1)">
	<g>
		<g>
			<path d="M478.452,74.974c-0.883-4.414-5.297-7.945-9.71-7.945l-55.183,5.017c0.288-2.223,0.452-4.484,0.452-6.782
				c0-29.131-23.834-52.966-52.966-52.966s-52.966,23.834-52.966,52.966c0,5.291,0.795,10.403,2.257,15.233L184.561,91.434
				L41.486,78.505c-1.766-0.883-4.414,0-6.179,1.766c-2.648,1.766-3.531,3.531-3.531,6.179L-0.886,456.326
				c-0.883,5.297,3.531,9.71,7.945,9.71l117.19,9.903l0.217,2.455c0.883,2.648,1.766,4.414,3.531,6.179
				c0.883,0.883,3.531,1.766,5.297,1.766l56.48-4.987l187.162,16.463c5.297,0,8.828-3.531,8.828-7.945l2.053-26.007l115.354-10.186
				c2.648-0.883,4.414-1.766,6.179-3.531c0.883-1.766,1.766-3.531,1.766-6.179L478.452,74.974z M361.045,29.953
				c19.421,0,35.31,15.89,35.31,35.31c0,4.054-0.701,7.95-1.973,11.583c-0.29,0.502-0.524,1.052-0.675,1.658
				c-4.943,12.356-16.804,20.863-29.845,21.945c-0.124,0.01-0.247,0.02-0.371,0.028c-0.812,0.059-1.627,0.095-2.447,0.095
				c-0.682,0-1.36-0.026-2.036-0.064c-0.326-0.019-0.65-0.047-0.974-0.075c-0.296-0.024-0.591-0.052-0.886-0.083
				c-7.43-0.825-14.18-3.98-19.504-8.712c-0.366-0.583-0.799-1.142-1.317-1.66s-1.077-0.951-1.66-1.317
				c-1.354-1.523-2.579-3.161-3.657-4.901c-0.22-0.436-0.454-0.832-0.701-1.19c-2.905-5.124-4.575-11.03-4.575-17.31
				C325.734,45.843,341.624,29.953,361.045,29.953z M17.652,448.381L48.548,97.043l45.903,4.414l-0.883,0.883
				c-0.883,1.766-1.766,3.531-1.766,6.179l30.79,348.681L17.652,448.381z M368.989,479.277l-78.035-6.86l78.9-6.967L368.989,479.277
				z M141.238,466.919l-30.82-350.462l77.606-7.055c1.283,0,2.487-0.381,3.556-1.019L316.649,97.3l-41.232,41.232
				c-3.531,3.531-3.531,8.828,0,12.359c1.766,1.766,3.531,2.648,6.179,2.648c2.648,0,4.414-0.883,6.179-2.648l42.559-42.559
				c8.679,6.217,19.282,9.897,30.71,9.897c20.585,0,38.512-11.909,47.267-29.17l53.368-4.374l30.897,351.338L141.238,466.919z"/>
			<path d="M389.293,216.215l27.365-2.648c4.414-0.883,7.945-5.297,7.945-9.71c-0.883-4.414-5.297-7.945-9.71-7.945l-26.483,2.648
				c-4.414,0.883-7.945,5.297-7.945,9.71C380.465,212.684,384.879,216.215,389.293,216.215z"/>
			<path d="M292.189,225.043l62.676-5.297c4.414-0.883,7.945-5.297,7.945-9.71c-0.883-4.414-5.297-8.828-9.71-7.945l-61.793,5.297
				c-4.414,0.883-7.945,5.297-7.945,9.71C284.245,221.512,287.776,225.043,292.189,225.043z"/>
			<path d="M258.645,227.691c4.414-0.883,7.945-5.297,7.945-9.71c-0.883-4.414-4.414-8.828-9.71-7.945l-79.448,7.062
				c-4.414,0.883-7.945,5.297-7.945,9.71c0.883,4.414,4.414,7.945,8.828,7.945L258.645,227.691z"/>
			<path d="M419.307,248.877l-61.793,5.297c-4.414,0.883-7.945,5.297-7.945,9.71c0.883,4.414,4.414,7.945,8.828,7.945l62.676-5.297
				c4.414-0.883,7.945-4.414,7.945-9.71C428.134,252.408,423.721,247.995,419.307,248.877z"/>
			<path d="M235.693,274.478c0.883,4.414,4.414,7.945,8.828,7.945l62.676-5.297c4.414-0.883,8.828-5.297,7.945-9.71
				c-0.883-4.414-5.297-7.945-9.71-7.945l-61.793,5.297C239.224,265.65,235.693,270.064,235.693,274.478z"/>
			<path d="M210.093,285.071c4.414-0.883,7.945-5.297,7.945-9.71c-0.883-4.414-4.414-8.828-9.71-7.945l-26.483,2.648
				c-4.414,0.883-7.945,5.297-7.945,9.71c0.883,4.414,4.414,7.945,8.828,7.945L210.093,285.071z"/>
			<path d="M423.721,301.843l-17.655,1.766c-4.414,0.883-7.945,5.297-7.945,9.71c0,4.414,4.414,7.945,8.828,7.945l18.538-1.766
				c4.414-0.883,7.945-5.297,7.945-9.71C432.548,305.374,428.134,300.96,423.721,301.843z"/>
			<path d="M371.638,306.257l-88.276,7.945c-4.414,0.883-7.945,5.297-7.945,9.71c0.883,4.414,4.414,7.945,8.828,7.945l89.159-7.945
				c4.414-0.883,8.828-5.297,7.945-9.71S376.052,305.374,371.638,306.257z"/>
			<path d="M230.396,319.498l-44.138,3.531c-4.414,0.883-7.945,5.297-7.945,9.71c0.883,4.414,4.414,7.945,8.828,7.945l45.021-3.531
				c4.414-0.883,7.945-5.297,7.945-9.71C239.224,323.029,235.693,318.615,230.396,319.498z"/>
			<path d="M429.017,354.809l-88.276,7.945c-4.414,0.883-7.945,5.297-7.945,9.71c0.883,4.414,4.414,7.945,8.828,7.945l89.159-7.945
				c4.414-0.883,7.945-5.297,7.945-9.71C437.845,358.34,433.431,354.809,429.017,354.809z"/>
			<path d="M287.776,367.167l-35.31,2.648c-4.414,0.883-7.945,5.297-7.945,9.71c0.883,4.414,4.414,7.945,8.828,7.945l36.193-2.648
				c4.414-0.883,8.828-5.297,7.945-9.71C296.603,370.698,292.189,366.284,287.776,367.167z"/>
			<path d="M217.155,372.464l-26.483,2.648c-4.414,0.883-7.945,5.297-7.945,9.71c0.883,4.414,4.414,7.945,8.828,7.945l27.366-2.648
				c4.414-0.883,7.945-5.297,7.945-9.71C225.983,375.995,222.452,371.581,217.155,372.464z"/>
		</g>
	</g>
</g>
<g>
</g>
<g>
</g>
<g>
</g>
<g>
</g>
<g>
</g>
<g>
</g>
<g>
</g>
<g>
</g>
<g>
</g>
<g>
</g>
<g>
</g>
<g>
</g>
<g>
</g>
<g>
</g>
<g>
</g>
</svg>
